# WaveFront *.obj file (generated by CINEMA 4D)

mtllib ./grid.mtl

v -7.5 0 -0
v 7.5 0 -0
v -7.5 0 -0.02999999932945
v 7.5 0 -0.02999999932945
v -7.5 0 -1
v 7.5 0 -1
v -7.5 0 -1.02999997138977
v 7.5 0 -1.02999997138977
v -7.5 0 -2
v 7.5 0 -2
v -7.5 0 -2.02999997138977
v 7.5 0 -2.02999997138977
v -7.5 0 -3
v 7.5 0 -3
v -7.5 0 -3.02999997138977
v 7.5 0 -3.02999997138977
v -7.5 0 -4
v 7.5 0 -4
v -7.5 0 -4.03000020980835
v 7.5 0 -4.03000020980835
v -7.5 0 -5
v 7.5 0 -5
v -7.5 0 -5.03000020980835
v 7.5 0 -5.03000020980835
v -7.5 0 -6
v 7.5 0 -6
v -7.5 0 -6.03000020980835
v 7.5 0 -6.03000020980835
v -7.5 0 -7
v 7.5 0 -7
v -7.5 0 -7.03000020980835
v 7.5 0 -7.03000020980835
v -7.5 0 -8
v 7.5 0 -8
v -7.5 0 -8.02999973297119
v 7.5 0 -8.02999973297119
v -7.5 0 -9
v 7.5 0 -9
v -7.5 0 -9.02999973297119
v 7.5 0 -9.02999973297119
v -7.5 0 -10
v 7.5 0 -10
v -7.5 0 -10.02999973297119
v 7.5 0 -10.02999973297119
v -7.5 0 -11
v 7.5 0 -11
v -7.5 0 -11.02999973297119
v 7.5 0 -11.02999973297119
v -7.5 0 -12
v 7.5 0 -12
v -7.5 0 -12.02999973297119
v 7.5 0 -12.02999973297119
v -7.5 0 -13
v 7.5 0 -13
v -7.5 0 -13.02999973297119
v 7.5 0 -13.02999973297119
v -7.5 0 -14
v 7.5 0 -14
v -7.5 0 -14.02999973297119
v 7.5 0 -14.02999973297119
v -7.5 0 -15
v 7.5 0 -15
v -7.5 0 -15.02999973297119
v 7.5 0 -15.02999973297119
v -7.5 0 -16
v 7.5 0 -16
v -7.5 0 -16.03000068664551
v 7.5 0 -16.03000068664551
v -7.5 0 -17
v 7.5 0 -17
v -7.5 0 -17.03000068664551
v 7.5 0 -17.03000068664551
v -7.5 0 -18
v 7.5 0 -18
v -7.5 0 -18.03000068664551
v 7.5 0 -18.03000068664551
v -7.5 0 -19
v 7.5 0 -19
v -7.5 0 -19.03000068664551
v 7.5 0 -19.03000068664551
v -7.5 0 -20
v 7.5 0 -20
v -7.5 0 -20.03000068664551
v 7.5 0 -20.03000068664551
v -7.5 0 -21
v 7.5 0 -21
v -7.5 0 -21.03000068664551
v 7.5 0 -21.03000068664551
v -7.5 0 -22
v 7.5 0 -22
v -7.5 0 -22.03000068664551
v 7.5 0 -22.03000068664551
v -7.5 0 -23
v 7.5 0 -23
v -7.5 0 -23.03000068664551
v 7.5 0 -23.03000068664551
v -7.5 0 -24
v 7.5 0 -24
v -7.5 0 -24.03000068664551
v 7.5 0 -24.03000068664551
v -7.5 0 -25
v 7.5 0 -25
v -7.5 0 -25.03000068664551
v 7.5 0 -25.03000068664551
v -7.5 0 -26
v 7.5 0 -26
v -7.5 0 -26.03000068664551
v 7.5 0 -26.03000068664551
v -7.5 0 -27
v 7.5 0 -27
v -7.5 0 -27.03000068664551
v 7.5 0 -27.03000068664551
v -7.5 0 -28
v 7.5 0 -28
v -7.5 0 -28.03000068664551
v 7.5 0 -28.03000068664551
v -7.5 0 -29
v 7.5 0 -29
v -7.5 0 -29.03000068664551
v 7.5 0 -29.03000068664551
v -7.5 0 -30
v 7.5 0 -30
v -7.5 0 -30.03000068664551
v 7.5 0 -30.03000068664551
v -7.5 0 -31
v 7.5 0 -31
v -7.5 0 -31.03000068664551
v 7.5 0 -31.03000068664551
v -7.5 0 -32
v 7.5 0 -32
v -7.5 0 -32.02999877929688
v 7.5 0 -32.02999877929688
v -7.5 0 -33
v 7.5 0 -33
v -7.5 0 -33.02999877929688
v 7.5 0 -33.02999877929688
v -7.5 0 -34
v 7.5 0 -34
v -7.5 0 -34.02999877929688
v 7.5 0 -34.02999877929688
v -7.5 0 -35
v 7.5 0 -35
v -7.5 0 -35.02999877929688
v 7.5 0 -35.02999877929688
v -7.5 0 -36
v 7.5 0 -36
v -7.5 0 -36.02999877929688
v 7.5 0 -36.02999877929688
v -7.5 0 -37
v 7.5 0 -37
v -7.5 0 -37.02999877929688
v 7.5 0 -37.02999877929688
v -7.5 0 -38
v 7.5 0 -38
v -7.5 0 -38.02999877929688
v 7.5 0 -38.02999877929688
v -7.5 0 -39
v 7.5 0 -39
v -7.5 0 -39.02999877929688
v 7.5 0 -39.02999877929688
v -7.5 0 -40
v 7.5 0 -40
v -7.5 0 -40.02999877929688
v 7.5 0 -40.02999877929688
v -7.5149998664856 0 -0.01499999966472
v -7.4850001335144 0 -0.01499999966472
v -7.5149998664856 0 -40.01499938964844
v -7.4850001335144 0 -40.01499938964844
v -6.5149998664856 0 -0.01499999966472
v -6.4850001335144 0 -0.01499999966472
v -6.5149998664856 0 -40.01499938964844
v -6.4850001335144 0 -40.01499938964844
v -5.5149998664856 0 -0.01499999966472
v -5.4850001335144 0 -0.01499999966472
v -5.5149998664856 0 -40.01499938964844
v -5.4850001335144 0 -40.01499938964844
v -4.5149998664856 0 -0.01499999966472
v -4.4850001335144 0 -0.01499999966472
v -4.5149998664856 0 -40.01499938964844
v -4.4850001335144 0 -40.01499938964844
v -3.51500010490417 0 -0.01499999966472
v -3.48499989509583 0 -0.01499999966472
v -3.51500010490417 0 -40.01499938964844
v -3.48499989509583 0 -40.01499938964844
v -2.51500010490417 0 -0.01499999966472
v -2.48499989509583 0 -0.01499999966472
v -2.51500010490417 0 -40.01499938964844
v -2.48499989509583 0 -40.01499938964844
v -1.51499998569489 0 -0.01499999966472
v -1.48500001430511 0 -0.01499999966472
v -1.51499998569489 0 -40.01499938964844
v -1.48500001430511 0 -40.01499938964844
v -0.51499998569489 0 -0.01499999966472
v -0.48500001430511 0 -0.01499999966472
v -0.51499998569489 0 -40.01499938964844
v -0.48500001430511 0 -40.01499938964844
v 0.48500001430511 0 -0.01499999966472
v 0.51499998569489 0 -0.01499999966472
v 0.48500001430511 0 -40.01499938964844
v 0.51499998569489 0 -40.01499938964844
v 1.48500001430511 0 -0.01499999966472
v 1.51499998569489 0 -0.01499999966472
v 1.48500001430511 0 -40.01499938964844
v 1.51499998569489 0 -40.01499938964844
v 2.48499989509583 0 -0.01499999966472
v 2.51500010490417 0 -0.01499999966472
v 2.48499989509583 0 -40.01499938964844
v 2.51500010490417 0 -40.01499938964844
v 3.48499989509583 0 -0.01499999966472
v 3.51500010490417 0 -0.01499999966472
v 3.48499989509583 0 -40.01499938964844
v 3.51500010490417 0 -40.01499938964844
v 4.4850001335144 0 -0.01499999966472
v 4.5149998664856 0 -0.01499999966472
v 4.4850001335144 0 -40.01499938964844
v 4.5149998664856 0 -40.01499938964844
v 5.4850001335144 0 -0.01499999966472
v 5.5149998664856 0 -0.01499999966472
v 5.4850001335144 0 -40.01499938964844
v 5.5149998664856 0 -40.01499938964844
v 6.4850001335144 0 -0.01499999966472
v 6.5149998664856 0 -0.01499999966472
v 6.4850001335144 0 -40.01499938964844
v 6.5149998664856 0 -40.01499938964844
v 7.4850001335144 0 -0.01499999966472
v 7.5149998664856 0 -0.01499999966472
v 7.4850001335144 0 -40.01499938964844
v 7.5149998664856 0 -40.01499938964844
# 228 vertices

vn 0 1 0
# 1 normal

vt 0 0 0
vt 0 1 0
vt 1 1 0
vt 1 0 0
# 4 texture coordinates

o Plane_0.1
usemtl default
f 2/4/1 4/3/1 3/2/1 1/1/1
f 6/4/1 8/3/1 7/2/1 5/1/1
f 10/4/1 12/3/1 11/2/1 9/1/1
f 14/4/1 16/3/1 15/2/1 13/1/1
f 18/4/1 20/3/1 19/2/1 17/1/1
f 22/4/1 24/3/1 23/2/1 21/1/1
f 26/4/1 28/3/1 27/2/1 25/1/1
f 30/4/1 32/3/1 31/2/1 29/1/1
f 34/4/1 36/3/1 35/2/1 33/1/1
f 38/4/1 40/3/1 39/2/1 37/1/1
f 42/4/1 44/3/1 43/2/1 41/1/1
f 46/4/1 48/3/1 47/2/1 45/1/1
f 50/4/1 52/3/1 51/2/1 49/1/1
f 54/4/1 56/3/1 55/2/1 53/1/1
f 58/4/1 60/3/1 59/2/1 57/1/1
f 62/4/1 64/3/1 63/2/1 61/1/1
f 66/4/1 68/3/1 67/2/1 65/1/1
f 70/4/1 72/3/1 71/2/1 69/1/1
f 74/4/1 76/3/1 75/2/1 73/1/1
f 78/4/1 80/3/1 79/2/1 77/1/1
f 82/4/1 84/3/1 83/2/1 81/1/1
f 86/4/1 88/3/1 87/2/1 85/1/1
f 90/4/1 92/3/1 91/2/1 89/1/1
f 94/4/1 96/3/1 95/2/1 93/1/1
f 98/4/1 100/3/1 99/2/1 97/1/1
f 102/4/1 104/3/1 103/2/1 101/1/1
f 106/4/1 108/3/1 107/2/1 105/1/1
f 110/4/1 112/3/1 111/2/1 109/1/1
f 114/4/1 116/3/1 115/2/1 113/1/1
f 118/4/1 120/3/1 119/2/1 117/1/1
f 122/4/1 124/3/1 123/2/1 121/1/1
f 126/4/1 128/3/1 127/2/1 125/1/1
f 130/4/1 132/3/1 131/2/1 129/1/1
f 134/4/1 136/3/1 135/2/1 133/1/1
f 138/4/1 140/3/1 139/2/1 137/1/1
f 142/4/1 144/3/1 143/2/1 141/1/1
f 146/4/1 148/3/1 147/2/1 145/1/1
f 150/4/1 152/3/1 151/2/1 149/1/1
f 154/4/1 156/3/1 155/2/1 153/1/1
f 158/4/1 160/3/1 159/2/1 157/1/1
f 162/4/1 164/3/1 163/2/1 161/1/1
f 166/4/1 168/3/1 167/2/1 165/1/1
f 170/4/1 172/3/1 171/2/1 169/1/1
f 174/4/1 176/3/1 175/2/1 173/1/1
f 178/4/1 180/3/1 179/2/1 177/1/1
f 182/4/1 184/3/1 183/2/1 181/1/1
f 186/4/1 188/3/1 187/2/1 185/1/1
f 190/4/1 192/3/1 191/2/1 189/1/1
f 194/4/1 196/3/1 195/2/1 193/1/1
f 198/4/1 200/3/1 199/2/1 197/1/1
f 202/4/1 204/3/1 203/2/1 201/1/1
f 206/4/1 208/3/1 207/2/1 205/1/1
f 210/4/1 212/3/1 211/2/1 209/1/1
f 214/4/1 216/3/1 215/2/1 213/1/1
f 218/4/1 220/3/1 219/2/1 217/1/1
f 222/4/1 224/3/1 223/2/1 221/1/1
f 226/4/1 228/3/1 227/2/1 225/1/1

